<?xml version="1.0" standalone="no"?>
<!DOCTYPE svg PUBLIC "-//W3C//DTD SVG 20010904//EN"
 "http://www.w3.org/TR/2001/REC-SVG-20010904/DTD/svg10.dtd">
<svg version="1.0" xmlns="http://www.w3.org/2000/svg"
 width="300.000000pt" height="242.000000pt" viewBox="0 0 300.000000 242.000000"
 preserveAspectRatio="xMidYMid meet">

<g transform="translate(0.000000,242.000000) scale(0.100000,-0.100000)"
fill="#000000" stroke="none">
<path d="M25 2385 c-14 -16 -25 -37 -25 -48 0 -11 26 -48 58 -81 53 -55 62
-72 92 -161 39 -119 150 -370 195 -440 17 -27 86 -103 153 -167 131 -126 162
-166 162 -213 0 -45 35 -183 85 -337 82 -249 98 -389 71 -595 -18 -134 -29
-170 -58 -179 -36 -11 -88 -65 -88 -91 0 -31 40 -48 132 -57 67 -6 67 -6 109
31 23 21 55 62 73 93 l31 55 5 -66 c3 -36 11 -73 19 -82 28 -35 80 -40 452
-44 299 -4 382 -2 447 10 271 52 484 225 576 470 58 153 70 297 52 642 -7 144
-6 181 8 239 47 197 211 348 364 333 43 -5 52 -3 52 11 0 28 -41 101 -72 127
-21 18 -25 25 -13 25 52 0 -57 81 -144 107 -41 13 -89 17 -181 16 -155 -2
-227 -22 -326 -92 -81 -56 -139 -128 -186 -226 -33 -70 -33 -70 -33 -225 1
-151 2 -160 48 -346 92 -372 86 -654 -18 -789 -34 -46 -114 -93 -125 -75 -4 7
-11 97 -14 199 -12 382 -28 474 -112 649 -72 149 -137 215 -282 291 -171 88
-210 143 -197 275 12 119 -28 267 -111 411 -31 56 -54 112 -73 186 -15 58 -35
119 -45 134 l-19 29 -18 -22 c-9 -12 -25 -46 -34 -75 -27 -83 -39 -97 -86 -97
-49 0 -71 -11 -130 -65 -26 -25 -66 -49 -96 -59 -45 -15 -54 -22 -64 -53 -15
-46 -4 -108 26 -155 14 -21 25 -42 25 -48 0 -17 -150 -11 -200 8 -45 17 -46
19 -125 178 -44 89 -96 181 -116 205 -20 24 -49 63 -63 86 -30 45 -85 88 -128
98 -22 6 -32 1 -53 -20z"/>
</g>
</svg>
